<svg xmlns="http://www.w3.org/2000/svg" width="686" height="682"><path fill="#FEFDF4" d="M0 0h686v682H0V0Z"/><path fill="#D74839" d="M291.053 249.502c-3.312-3.798-9.266-6.913-13.423-10.148-3.619-2.818-8.769-8.245-12.626-10.28-4.916-2.593-11.68-3.899-16.76-6.396-4.066-1.999-7.603-4.859-11.323-7.2-10.768-6.778-18.573-13.512-22.732-25.938-3.839-11.471 2.416-22.792 11.987-29.136 2.687-1.782 8.703-5.605 10.633-7.663 2.859-3.049 4.758-9.804 6.863-13.886 3.291-6.381 9.532-11.296 17.029-10.527 2.593.266 6.882 1.427 9.357 1.161 3.099-.334 7.256-2.323 10.438-3.249 5.331-1.551 11.454-1.76 16.436 1.018 5.971 3.33 10.222 9.946 10.595 16.784.18 3.46-.638 8.338.734 11.519 1.415 3.283 4.788 6.1 7.833 8.044 5.942 3.794 10.046 7.651 12.404 14.485 1.547 4.482.559 7.989.189 12.617-.354 4.424-.863 9.056-1.41 13.473-1.638 11.982-5.024 24.284-2.587 36.406.22 1.093.439 1.144 1.161 1.551-.821 3.428-1.961 6.53-2.814 9.88-.052.623-.196 1.887-.174 2.456-.119 1.175-.024 2.256-.65 3.07-.897-.47-1.266-1.268-1.838-2.14-2.54 2.486-.822 1.109-2.106 3.66l-1.488-.016c-1.995-1.169-3.49-2.026-5.343-3.414.711 5.305 1.231 9.031 4.081 13.671 1.014 1.652 2.737 4.207 3.294 5.966l2.636 2.51-1.237.706-.073.187c-1.279-.055-.778-.261-1.642.362-.039 1.568 5.414 6.519 6.579 8.361a71.63 71.63 0 0 1 2.516 4.292c2.569.172 4.8.339 7.342.682 1.824.246 5.943 1.151 7.622 1.078 8.343 1.05 9.91-2.045 14.594-8.402.623-2.024.953-2.543 1.983-4.311l.368-2.022c.612-1.451 1.315-2.866 1.998-4.285l.684-2.025c10.524-13.837 26.861-23.412 43.628-27.487 4.383-1.065 8.653-2.969 13.251-3.241l1.173.638c6.761-1.63 6.324-4.67 12.199-7.283 2.538-1.129 7.048-1.026 9.784-1.044 10.3-.069 17.075 1.085 26.22 5.913 2.956 1.513 5.691 2.493 8.543 4.289 6.52 4.105 9.693 8.808 12.142 15.779 3.689 10.499-7.944 14.079-6.119 21.342 2.147 8.544 4.344 11.782-1.217 20.011-2.15 3.454-3.933 5.314-6.513 8.586-5.123 6.493-9.833 12.054-18.21 14.312-4.092 1.104-7.809-.935-11.904-.189-3.929.716-7.75 4.176-11.027 5.307-9.616 3.316-25.728-4.184-33.708-9.283-8.971-5.732-16.235-16.047-25.143-21.309 3.066 3.928 6.506 7.437 8.897 11.781 1.81 3.289 3.001 7.116 4.748 10.365 2.142 12.139 1.612 22.016.594 34.247-5.658 12.353-10.054 18.471-23.425 23.355-3.052 1.116-9.53 3.268-11.931 4.802-9.013 5.756-15.675 14.029-27.391 8.505-4.016-1.894-7.072-4.703-10.901-6.557-2.314-1.121-8.403-.582-11.108-1.523-9.062-3.153-16.195-16.01-22.02-23.616-4.976-10.699-6.524-13.007-6.407-24.885 1.505-13.984 11.151-31.25 21.25-40.85-18.678 3.452-21.261 28.466-38.824 35.892-6.611 3.465-22.746 3.951-28.597-1.484-9.453-8.779-15.627-5.532-25.03-9.083-11.942-4.51-24.907-20.384-20.731-34.01.457-1.488-1.517-8.561-.909-10.72.723-4.711 2.259-8.756 5.886-12.142 4.428-3.717 5.433-6.489 7.295-11.721 2.104-6.756 11.037-7.505 14.871-11.03 4.57-4.752 6.637-9.442 13.382-11.693 27.15-9.061 44.132 11.018 66.122 21.125Z"/><path fill="#E3A94B" d="M362.183 272.403c10.524-13.837 26.861-23.412 43.628-27.487 4.383-1.065 8.653-2.969 13.251-3.241l1.173.638c-17.63 5.331-37.027 15.294-51.735 26.226-1.678 1.247-5.45 6.698-6.817 6.122l-.184-.233.684-2.025Zm-41.808-17c-5.256-8.361-9.561-20.147-14.333-28.849-3.431-6.017-7.351-11.748-11.127-17.545-1.996-3.064-4.49-5.272-5.328-8.814l.217-.094c2.398 4.162 7.32 8.809 9.321 11.955 5.315 8.358 21.464 31.392 23.912 39.961-.052.623-.196 1.887-.174 2.456-.119 1.175-.024 2.256-.65 3.07-.897-.47-1.266-1.268-1.838-2.14Zm-.163 23.083c-13.433-7.845-32.189-13.142-47.836-13.077-.849.003-2.868.187-3.433-.272l.521-.393c12.227-1.879 23.01.252 34.629 4.095 6.411 2.121 9.119 2.64 14.72 6.431l2.636 2.51-1.237.706Z"/><path fill="#DF8E47" d="M359.133 280.735c7.797-5.709 14.784-4.942 24.024-4.507 4.209.198 10.702.374 14.747 1.386l.023.27c-6.17 1.454-20.967-.895-27.961.834-2.003.495-3.909.686-5.899 1.582-2.394 1.076-4.484 5.696-6.917 4.746.623-2.024.953-2.543 1.983-4.311ZM330.062 318.3c1.311-6.15 2.53-12.146 5.833-17.6l.712-.096.018-.139-.508-.094.517-.377c.045 2.442-4.423 13.961-5.152 18.653l-.276.273-1.144-.62Z"/><path fill="#D87043" d="M329.253 328.31c-.008-3.899-.111-6.25.809-10.01l1.144.62.276-.273c-.374 2.5-.997 5.969-1.058 8.418l-1.171 1.245Z"/><path fill="#D96143" d="M304.257 278.81c1.92-.202 7.599.724 8.88 2.059-2.316.393-7.479-.064-8.88-2.059Zm26.167 48.255-.083.34c-.541 2.29-.332 3.381-1.177 5.79l-.283-.223c-.179-2.372.352-2.844.372-4.662l1.171-1.245Z"/><path fill="#D74839" d="M334.519 100.663c.619-.941 1.728-2.296 1.703-3.328l-1.109-1.04c.792-.512 1.121-.674 1.978-1.076l.084-.63c-.804-.876-1.275-1.304-2.178-2.083l.092-.536 1.262-.605c.151-1.454-.077-3.116-.209-4.593-1.211-1.179-1.697-.008-2.486-1.187.774-2.419 3.396-1.22 3.535-2.516.801-7.483-.853-14.763.445-22.264.7-4.042-.828-24.737.913-27.4.721.397.883 1.013 1.119 1.773 1.557 5.007 3.205 47.895 3.722 48.177 1.106.602 2.24.343 3.221 1.288l.298.97c-.979 1.274-3.692-.674-3.1 4.32.152 1.29.648 1.54 1.671 2.222.015 2.088-2.53 4.245-1.25 5.637 1.272 1.385 2.34 2.73.855 4.475l-1.538.339c-.908 1.428.2 7.302.562 9.192 2.748-.044 4.58-.088 7.302.466l-.263 4.906c-1.256.596-2.36.382-3.293 1.321.096.955-.061.499.759 1.292 1.753.357 3.083-.113 4.038.524.298 1.132.3.555-.206 1.776-1.494.936-4.911.427-7.484.986l.417.155c2.851 1.041 5.387.853 6.82 2.938.178 1.063.229 1.01-.1 2.018.205.951.197 1.16.663 2.029 1.086.066 1.434-.009 2.462-.243 1.125.261 2.168.954 2.373 2.162-1.912 3.037-10.86 1.209-13.338 2.519l-.005.495c2.926 1.35 12.311.378 13.858 1.922.334 4.049-10.556 3.238-14.115 4.141l.522.08c2.956.431 21.012-.551 19.536 3.802-3.538 2.71-15.456 1.535-16.913 2.355l.171.41c4.195.956 15.674-.163 17.304 2.228-.176 1.04-.104 1.268-.989 2.006-3.38 2.817-6.747.456-9.194 4.06-1.464.82-5.831.585-7.66.566.007 6.378-.04 12.756-.143 19.133-.094 3.927-.95 18.673-.205 21.51l.283-.443c1.668-4.479 2.444-9.273 4.439-13.732 1.699-3.798 3.984-8.42 6.624-11.62 7.267-8.81 18.442-17.772 29.332-21.298 3.588-1.161 7.177-1.404 10.889-2.998 4.371-1.878 7.599-5.007 11.316-7.001 3.326-1.785 16.539-1.576 20.039.241 1.972 1.024 5.376 5.142 8.025 6.195 3.379 1.345 7.872 1.351 11.023 2.343 6.191 1.95 12.362 14.876 14.001 20.709 2.418 8.604-4.925 13.587-6.555 21.482-1.978 9.577 7.455 17.609 1.778 26.512-5.305 8.319-14.932 6.238-22.483 11.038-3.617 2.298-6.326 4.306-9.512 7.193-1.899 1.721-4.486 4.484-6.563 5.699-4.598.272-8.868 2.176-13.251 3.241-16.767 4.075-33.104 13.65-43.628 27.487l-.684 2.025c-.683 1.419-1.386 2.834-1.998 4.285l-.368 2.022c-1.03 1.768-1.36 2.287-1.983 4.311-4.684 6.357-6.251 9.452-14.594 8.402-1.679.073-5.798-.832-7.622-1.078-2.542-.343-4.773-.51-7.342-.682a71.63 71.63 0 0 0-2.516-4.292c-1.165-1.842-6.618-6.793-6.579-8.361.864-.623.363-.417 1.642-.362l.073-.187 1.237-.706-2.636-2.51c-.557-1.759-2.28-4.314-3.294-5.966-2.85-4.64-3.37-8.366-4.081-13.671 1.853 1.388 3.348 2.245 5.343 3.414l1.488.016c1.284-2.551-.434-1.174 2.106-3.66.572.872.941 1.67 1.838 2.14.626-.814.531-1.895.65-3.07-.022-.569.122-1.833.174-2.456.853-3.35 1.993-6.452 2.814-9.88.724-2.64 1.711-11.096 2.213-14.278 3.491-22.112 6.028-47.038 5.344-69.428-4.968-.067-5.187.281-7.031-4.245l-3.317-.093c-3.135-2.136-5.158-3.558-7.6-6.454 1.46-.183 4.916-.525 6.104-.979-1.058-.843-4.822-1.275-6.927-2.374-.295-1.102-.269-1.025 0-2.143 1.024-.626 6.267-.363 7.891-.352.076-.158.441-1.632.511-1.902-1.174-.515-3.766-.553-5.398-.894-.624-.72-.5-.299-.49-1.249 2.302-2.823 14.365-1.68 15.994-2.509l.041-.609c-2.917-1.091-10.934.142-11.934-2.763.692-1.39.327-.907 1.674-1.803 2.029-.232 2.886.014 3.902-1.787-.15-1.247-.488-2.602.051-3.665 1.586-.933 4.612-.004 6.319-.883l-.125-.52c-2.669-1.348-5.655.856-6.585-1.94 1.038-2.175 4.262-1.195 6.269-2.546l.107-.631c-1.48-1.424-3.686.039-5.105-.947-.538-1.759-.003-3.91 1.364-5.165 1.797-.497 4.741-.459 6.621-.374.666-2.751 1.31-5.508 1.932-8.27-1.137-.903-2.113-1.648-3.157-2.671Z"/><path fill="#9D2F28" d="M334.519 100.663c.619-.941 1.728-2.296 1.703-3.328l-1.109-1.04c.792-.512 1.121-.674 1.978-1.076l.084-.63c-.804-.876-1.275-1.304-2.178-2.083l.092-.536 1.262-.605c.151-1.454-.077-3.116-.209-4.593-1.211-1.179-1.697-.008-2.486-1.187.774-2.419 3.396-1.22 3.535-2.516.801-7.483-.853-14.763.445-22.264.7-4.042-.828-24.737.913-27.4.721.397.883 1.013 1.119 1.773 1.557 5.007 3.205 47.895 3.722 48.177 1.106.602 2.24.343 3.221 1.288l.298.97c-.979 1.274-3.692-.674-3.1 4.32.152 1.29.648 1.54 1.671 2.222.015 2.088-2.53 4.245-1.25 5.637 1.272 1.385 2.34 2.73.855 4.475l-1.538.339c-.908 1.428.2 7.302.562 9.192 2.748-.044 4.58-.088 7.302.466l-.263 4.906c-1.256.596-2.36.382-3.293 1.321.096.955-.061.499.759 1.292 1.753.357 3.083-.113 4.038.524.298 1.132.3.555-.206 1.776-1.494.936-4.911.427-7.484.986l.417.155c2.851 1.041 5.387.853 6.82 2.938.178 1.063.229 1.01-.1 2.018.205.951.197 1.16.663 2.029 1.086.066 1.434-.009 2.462-.243 1.125.261 2.168.954 2.373 2.162-1.912 3.037-10.86 1.209-13.338 2.519l-.005.495c2.926 1.35 12.311.378 13.858 1.922.334 4.049-10.556 3.238-14.115 4.141l.522.08c2.956.431 21.012-.551 19.536 3.802-3.538 2.71-15.456 1.535-16.913 2.355l.171.41c4.195.956 15.674-.163 17.304 2.228-.176 1.04-.104 1.268-.989 2.006-3.38 2.817-6.747.456-9.194 4.06-1.464.82-5.831.585-7.66.566.007 6.378-.04 12.756-.143 19.133-.094 3.927-.95 18.673-.205 21.51.433 1.869.538 3.816.755 5.696 1.659 14.397 2.301 28.382 1.565 42.861-.165 3.254.667 9.069 1.073 12.39 1.099-.999 3.906-3.929 5.086-4.033.969.434 1.212.823 1.916 1.603 1.954.153 3.987-3.04 5.239-4.558l.404-.195c1.152.368 1.633.244 2.095 1.498l.294 1.122c1.238.538 2.406-.338 3.653-.906-2.239 4.891-7.81 14.781-6.323 19.57l-.684 2.025c-.683 1.419-1.386 2.834-1.998 4.285l-.368 2.022c-1.03 1.768-1.36 2.287-1.983 4.311-4.684 6.357-6.251 9.452-14.594 8.402-1.679.073-5.798-.832-7.622-1.078-2.542-.343-4.773-.51-7.342-.682a71.63 71.63 0 0 0-2.516-4.292c-1.165-1.842-6.618-6.793-6.579-8.361.864-.623.363-.417 1.642-.362l.073-.187 1.237-.706-2.636-2.51c-.557-1.759-2.28-4.314-3.294-5.966-2.85-4.64-3.37-8.366-4.081-13.671 1.853 1.388 3.348 2.245 5.343 3.414l1.488.016c1.284-2.551-.434-1.174 2.106-3.66.572.872.941 1.67 1.838 2.14.626-.814.531-1.895.65-3.07-.022-.569.122-1.833.174-2.456.853-3.35 1.993-6.452 2.814-9.88.724-2.64 1.711-11.096 2.213-14.278 3.491-22.112 6.028-47.038 5.344-69.428-4.968-.067-5.187.281-7.031-4.245l-3.317-.093c-3.135-2.136-5.158-3.558-7.6-6.454 1.46-.183 4.916-.525 6.104-.979-1.058-.843-4.822-1.275-6.927-2.374-.295-1.102-.269-1.025 0-2.143 1.024-.626 6.267-.363 7.891-.352.076-.158.441-1.632.511-1.902-1.174-.515-3.766-.553-5.398-.894-.624-.72-.5-.299-.49-1.249 2.302-2.823 14.365-1.68 15.994-2.509l.041-.609c-2.917-1.091-10.934.142-11.934-2.763.692-1.39.327-.907 1.674-1.803 2.029-.232 2.886.014 3.902-1.787-.15-1.247-.488-2.602.051-3.665 1.586-.933 4.612-.004 6.319-.883l-.125-.52c-2.669-1.348-5.655.856-6.585-1.94 1.038-2.175 4.262-1.195 6.269-2.546l.107-.631c-1.48-1.424-3.686.039-5.105-.947-.538-1.759-.003-3.91 1.364-5.165 1.797-.497 4.741-.459 6.621-.374.666-2.751 1.31-5.508 1.932-8.27-1.137-.903-2.113-1.648-3.157-2.671Z"/><path fill="#B83932" d="M342.556 293.448c3.501-.781 4.039-3.445 7.3-2.212l.32.124c4.307-1.964 6.671-9.325 9.325-12.647l-.368 2.022c-1.03 1.768-1.36 2.287-1.983 4.311-4.684 6.357-6.251 9.452-14.594 8.402Zm-22.181-38.045c.572.872.941 1.67 1.838 2.14.626-.814.531-1.895.65-3.07.135 2.067.479 3.7-.525 5.485-2.001 1.409-3.605.203-5.557-.911l1.488.016c1.284-2.551-.434-1.174 2.106-3.66Z"/><path fill="#F0E6E6" d="M323.039 139.889c2.462.213 8.204.489 10.1 1.645-.961.881-9.079.579-10.611.257.076-.158.441-1.632.511-1.902Zm3.789-11.614c1.848-.017 4.778-.349 6.123.996-1.519 1.86-7.797 1.22-10.025.791 2.029-.232 2.886.014 3.902-1.787Zm25.271-.095c.205.951.197 1.16.663 2.029-2.288-.492-6.696-.837-9.393-1.253a62.126 62.126 0 0 1 8.73-.776Z"/><path fill="#D96143" d="M321.449 277.78c2.007 1.747 2.941 2.78 4.446 5.042a100.984 100.984 0 0 1-5.756-4.149l.073-.187 1.237-.706Z"/><path fill="#DF8E47" d="M367.685 243.376c5.234-5.326 10.511-10.906 17.064-14.625 1.945-1.103 8.796-5.214 10.605-5.267-1.976 2.328-7.528 5.263-10.318 6.922-6.502 3.864-10.974 9.19-16.584 13.992-.563-.388-.394-.327-.767-1.022Z"/><path fill="#D96143" d="M362.06 251.314c-.791-.294-.471-.043-.948-.77.578-2.046 4.852-5.744 6.573-7.168.373.695.204.634.767 1.022-.588.586-2.645 2.609-3.037 3.252-.979 1.087-2.131 2.279-2.951 3.469l-.404.195Z"/><path fill="#B83932" d="m365.415 247.65.584.453c.044 1.577-.746 3.093-1.44 4.514-.462-1.254-.943-1.13-2.095-1.498.82-1.19 1.972-2.382 2.951-3.469Z"/><defs><linearGradient id="a" x1="373.532" x2="370.937" y1="226.783" y2="224.691" gradientUnits="userSpaceOnUse"><stop offset="0" stop-color="#E5A94A"/><stop offset="1" stop-color="#EDC750"/></linearGradient></defs><path fill="url(#a)" d="m389.715 205.399 1.068 1.222c-12.349 11.108-25.939 26.789-33.55 41.648-.651-.627-.61-.939-.813-1.838 7.824-16.236 19.973-29.227 33.295-41.032Z"/><path fill="#DF8E47" d="M389.715 205.399c3.501-2.893 7.066-5.261 11.242-7.102-2.242 2.285-7.177 5.605-10.174 8.324l-1.068-1.222Zm-32.482 42.87c-.369 1.501-1.887 4.208-3.212 5.08-.375-1.785 1.571-5.278 2.399-6.918.203.899.162 1.211.813 1.838Z"/><path fill="#4B8E73" d="M388.927 320.89c5.133 2.703 10.298 5.992 15.459 8.462 7.109 3.403 14.746 5.833 21.426 10.188 20.469 12.426 32.384 38.474 39.644 60.543-7.429-6.553-16.676-12.15-25.698-16.047-15.366-6.637-30.967-8.849-43.813-20.935-2.361-2.221-5.186-4.89-6.424-7.964 1.018-12.231 1.548-22.108-.594-34.247Z"/><path fill="#9D2F28" d="M313.763 583.54c14.827-1.936 28.415 8.514 30.351 23.34 1.936 14.827-8.513 28.416-23.339 30.352-14.827 1.936-28.415-8.513-30.351-23.34-1.937-14.827 8.513-28.416 23.339-30.352Z"/><path fill="#FEFDF4" d="M315.894 589.249c8.418-.591 13.32 7.09 14.18 14.584 1.15 10.022.962 22.849-10.752 26.367-14.578.995-16.293-13.955-14.841-25.08.994-7.611 3.251-13.706 11.413-15.871Z"/><path fill="#9D2F28" d="M498.311 505.641c.371-.109.771-.078 1.183-.09.089.97-2.178 3.506-2.892 5.988-1.242 4.321-1.68 8.572-1.524 13.248.301 9.049-.241 20.399 2.123 29.155.286 1.059 3.142 3.783 3.997 4.642-7.339.114-14.817-.226-22.111.125 1.554-1.959 3.543-4.551 3.91-7.043 1.364-9.25.774-22.252.661-31.678-4.779 8.692-9.017 19.573-13.521 28.544-1.215 2.42-3.361 8.078-4.703 9.96l-.489.013c-2.488-2.557-10.818-22.524-12.992-26.91-1.093-2.205-2.514-6.758-4.158-8.938-.456.692-.309 1.54-.35 2.53-.005 7.834-.339 17.858.417 25.761.161 1.689 3.163 5.813 3.685 7.617-1.225.812-15.725.463-17.957.213.592-1.047 3.925-6.835 4.076-7.586 2.096-10.414 1.64-22.944 1.377-33.593-.152-6.155-1.763-7.595-5.854-11.106 7.336-.029 14.672-.1 22.008-.213 2.638 7.382 9.067 21.501 12.523 28.621l12.985-28.892c5.838-.284 11.718-.086 17.606-.368Zm68.567-.355c7.923-.162 20.756-1.33 27.818 2.528 10.688 5.839 9.329 23.581-3.521 26.289 7.599 8.051 11.975 16.964 19.651 23.984-4.817.399-11.455.326-16.508.495-2.049-2.442-3.249-4.362-4.953-7.07-1.781-2.774-8.36-15.047-12.213-13.483-.826 1.146-.996 2.419-.892 3.806.712 9.527-.106 10.272 6.309 16.584-7.021-.285-15.894-.267-22.929-.069 3.545-3.66 4.98-7.148 4.971-12.772-.017-10.301 1.362-24.202-1.166-34.043-.424-1.651-3.183-4.713-4.365-6.066l7.798-.183Z"/><path fill="#FEFDF4" d="M577.712 511.861c5.806-.376 10.487.663 11.008 7.918.246 3.437-1.125 6.054-3.476 8.524-3.089 2.295-5.096 2.322-8.78 1.886-.304-5.232-.382-13.487 1.248-18.328Z"/><path fill="#4B8E73" d="M207.614 401.746c1.316-2.865 3.501-6.316 5.111-9.055 12.969-22.065 28.254-45.831 53.578-54.846 3.725-1.326 6.121-2.155 10.035-2.627-.117 11.878 1.431 14.186 6.407 24.885-9.092 7.556-26.323 13.779-37.324 19.292-13.2 6.614-25.837 13.638-37.807 22.351Z"/><path fill="#9D2F28" d="M228.522 583.633c5.494-.364 17.026-.163 22.654.082-7.053 5.734-5.708 12.254-5.62 20.519l19.661.119c-.015-3.487.032-7.008-.124-10.491-.238-5.349-1.548-7.296-5.641-10.237a613.67 613.67 0 0 1 24.042.078c-1.825 1.637-4.828 4.536-5.043 7.45-.835 11.321-.997 25.677.188 36.913.226 2.147 3.272 6.626 4.294 8.17l-2.822.101-20.116-.045c5.12-5.333 5.141-7.972 5.054-15.194-.037-3.109-.039-6.427-.067-9.556-6.472.034-12.945.106-19.417.214-.07 9.512-1.143 17.711 5.657 24.635l-22.635-.034c2.597-3.648 4.555-6.365 4.573-11.187.044-11.628 1.036-24.061-.8-35.558-.313-1.96-2.878-4.346-3.838-5.979Zm170.927-155.384c.872-.088.812-.104 1.628.208-.157 1.275-2.229 2.444-2.904 4.043-3.55 8.413-1.852 18.893-2.233 27.827-.228 5.367.051 11.114 1.541 16.139.578 1.951 2.616 4.003 3.993 5.454-7.458.199-15.21.09-22.69.082 4.32-4.73 5.02-7.053 4.869-13.541-.081-3.49-.088-7.207-.143-10.719-6.226-.245-12.896-.118-19.125-.04-.286 3.855-.329 9.424-.072 13.24.351 5.226 1.626 7.774 5.421 11.013-5.494.135-11.237.061-16.751.066l-6.079-.025c3.603-3.936 4.597-6.615 4.71-12.036-.017-6.162.318-12.409.103-18.566-.326-9.371 1.481-15.305-5.241-22.628 4.778.446 17.94.306 22.818-.124-.487.472-.97.948-1.449 1.429-4.818 4.862-3.704 13.588-3.68 20.302l19.37.061c.057-3.803.145-7.599.077-11.403-.09-4.991-1.832-7.067-4.799-10.679 6.164.301 14.434.089 20.636-.103Zm-15.737 155.275 23.164-.092-.291.29c-1.052 1.067-3.316 3.598-3.523 4.992-1.45 9.794-.928 21.766-1.007 31.705-.063 7.733.294 10.914 5.446 15.872l-4.794-.112-18.357-.247c4.437-4.82 5.189-7.172 5.066-13.808-.068-3.669-.103-7.499-.169-11.184-6.385.027-12.77.005-19.155-.066-.222 6.727-1.327 17.964 2.98 22.964l2.207 2.583c-8.073-.177-15.805-.09-23.839-.173 1.497-1.272 4.545-3.542 4.793-5.566 1.63-13.309 1.56-28.108-.02-41.433-.227-1.917-3.201-3.864-3.905-5.631 6.327-.399 16.208-.137 22.788-.155-7.039 6.146-5.35 11.942-4.967 20.517l19.142.026c.058-8.546 1.876-14.773-5.559-20.482Zm-93.926-76.972c6.28-.43 16-.095 22.486-.048a85.736 85.736 0 0 0-1.968 1.941c-4.511 4.625-3.539 12.352-3.45 18.518l19.63-.139c.059-8.749.909-13.831-5.381-20.307 7.435-.087 14.87-.09 22.305-.012-1.498 1.531-4.219 4.625-4.278 7.014-.303 12.388-1.357 27.853.82 39.925.455 2.525 2.4 3.463 3.603 5.226l-.285.428-1.772.207c-6.188.089-13.521.151-19.644-.134 3.602-5.013 4.589-7.579 4.463-13.882-.072-3.563-.097-7.271-.162-10.848-5.932-.196-13.376-.062-19.33.053-.08 10.245-1.488 16.791 5.277 24.705-7.376.246-14.759.227-22.134-.058 7.491-8.081 3.775-23.709 4.547-34.203.553-7.521.06-12.364-4.727-18.386Zm-123.227.005c6.147-.223 12.569-.138 18.74-.143 2.014 3.236 5.615 8 7.929 11.175a1379.93 1379.93 0 0 1 14.286 19.718c.01-10.456 1.883-23.154-6.243-30.858 6.925-.031 13.851-.006 20.776.075l-.316.3c-1.606 1.536-3.39 3.016-4.288 5.094-3.836 8.868-1.71 36.401-1.985 47.191a108.63 108.63 0 0 1-7.084-.217c-2.685-1.586-11.238-14.562-13.717-18.015-4.692-6.535-10.144-13.635-14.639-20.293.471 7.492.056 15.772.195 23.325.155 8.425.33 9.241 6.127 15.289-6.661.302-15.036.206-21.695.036 4.31-3.988 5.92-5.322 6.214-11.99.483-10.946 1.128-24.148-.625-34.993-.281-1.739-2.56-4.352-3.675-5.694Zm97.773-.113c6.233-.023 12.734-.105 18.94.159-6.941 8.33-5.377 16.534-5.566 26.768-.158 8.575.345 17.207.141 25.784-3.372-.034-5.676.242-8.371-1.834-2.59-2.63-6.089-7.584-8.289-10.671l-12.225-17.136c-1.944-2.701-4.7-6.767-6.817-9.205.222 9.305-.532 19.013.221 28.285.462 5.692 2.802 7.318 6.889 10.561-6.191.51-16.194.156-22.628.091 2.441-2.322 5.419-4.622 5.988-8.335 1.008-6.582.882-13.309.852-19.986-.043-9.541.822-16.151-4.622-24.443 6.075-.22 13.708-.043 19.888-.052 2.286 5.273 17.621 25.54 21.615 30.622-.123-4.897-.212-9.801-.408-14.695-.249-6.226-.657-11.506-5.608-15.913Zm160.386-78.521c4.989.146 10.811-.073 15.86-.146 4.761 10.97 8.293 22.652 12.386 33.886 2.419 6.638 4.56 14.406 8.306 20.33-6.628.043-13.257.043-19.885-.001.66-1.011 1.769-2.71 2.25-3.802 1.062-2.407 1.289-8.634-1.738-9.607-3.687-.046-7.83-.075-11.478-.126-7.137-.1-10.165-.481-8.771 8.015.466 2.842.927 3.104 2.596 5.444-5.887.229-11.909.123-17.809.068.377-.451.741-.913 1.093-1.384 3.809-5.166 16.597-37.437 19.011-45.292.491-1.596-1.525-5.248-1.764-6.92l-.057-.465Z"/><path fill="#FEFDF4" d="M432.878 441.994c1.905 1.439 6.218 16.291 7.244 19.525l-7.284.057-7.621-.09c2.522-6.518 5.326-12.907 7.661-19.492Z"/><path fill="#9D2F28" d="M201.852 428.322c4.9.18 10.473.042 15.423.027 1.272 2.787 2.743 7.099 3.845 10.036a884.753 884.753 0 0 1 7.754 21.359c2.222 6.288 5.738 17.21 9.55 22.194-6.779.171-13.56.208-20.34.111 1.07-1.419 2.107-2.746 2.465-4.518.606-2.998 1.606-8.268-2.406-9.007-3.605-.009-15.391-.61-18.924.62-1.925.67-1.822 6.759-1.123 8.437.727 1.743 1.735 2.843 3.205 4.42-6.112.148-12.514.082-18.653.12 1.278-1.734 3.259-4.93 4.229-7.237 5.417-12.891 12.358-26.704 16.44-39.975.461-1.5-.951-5.139-1.465-6.587Z"/><path fill="#FEFDF4" d="M209.499 441.714c1.9 1.714 6.614 16.349 7.824 19.801l-7.321.07a254.305 254.305 0 0 1-8.378-.148c2.575-6.383 5.711-13.253 7.875-19.723Z"/><path fill="#9D2F28" d="M98.023 505.244c7.315-.655 15.184.7 22.552 1.364.099 2.26.418 13.161-.396 14.532-2.799-.057-7.567-7.052-11.218-8.285-28.328-9.569-27.763 50.553 2.177 38.943.383-9.722 1.511-12.507-6.128-19.416 2.15-.078 4.451-.064 6.616-.089 5.713-.015 11.71-.12 17.393.148-3.465 3.397-5.946 5.568-6.113 10.837-.128 4.014.074 8.088.195 12.091-5.477 3.425-10.529 4.219-16.744 4.704-16.9 1.32-30.884-7.393-31.616-25.327-.629-15.427 7.617-27.298 23.282-29.502Zm51.443-77.033c7.42-.617 14.687.892 21.888 2.457-.076 2.422-.188 11.521-.815 13.344-3.503-.188-6.452-8.847-15.88-9.344a13.516 13.516 0 0 0-9.746 3.538c-4.061 3.649-5.625 8.047-6.38 16.168-1.146 12.331 7.074 27.148 22.219 21.247 1.336-.521.688-9.817.563-12.76-1.129-1.949-3.681-4.499-5.288-6.297 1.96-.093 4.038-.087 6.01-.112 5.622.102 11.2-.094 16.844.072-8.329 7.669-4.291 11.632-5.913 22.336-6.876 3.621-14.431 4.691-22.097 4.605-8.889-.099-17.35-4.435-21.945-12.139-7.515-12.603-4.898-31.409 8.207-39.291 4.099-2.468 7.669-3.239 12.333-3.824Zm313.153-.315c5.275-.502 16.369-.155 22.012-.143-7.216 7.061-4.733 11.675-5.167 20.95-.247 5.29-.014 10.554.262 15.855.421 8.09 7.892 12.61 15.325 9.954 7.36-2.682 7.073-11.1 7.098-17.54-.412-10.974 1.873-19.457-4.549-28.94 5.676-.34 11.248.126 17.202-.255l.431.308c-.19 1.459-3.242 4.547-3.879 7.026-3.151 10.737.658 27.581-3.206 37.525-6.216 15.999-38.01 13.62-40.343-4.987-1.512-12.06-.036-21.999-1.344-33.853-.241-2.187-3.022-3.944-3.842-5.9Zm-95.233 78.412 21.683-.036c.534 3.734 1.953 9.537 2.763 13.438-1.785-1.164-3.479-2.612-5.421-3.883-5.271-3.449-11.552-2.646-17.675-2.392-.064 4.598-.06 9.196.012 13.794 8.531.096 7.721.55 14.744-4.129.101 4.555.092 10.203-.16 14.71-6.37-4.326-7.053-3.945-14.577-3.842-.072 3.702-.382 14.365.375 17.323 1.721 1.225 7.519.726 9.792.613 7.557-.776 10.442-3.51 16.125-8.156-1.323 5.16-2.62 10.328-3.891 15.502-8.81.389-17.946-.066-26.789.114-4.106.083-8.677.061-12.748-.281.741-.94 1.545-1.955 2.228-2.932a13.969 13.969 0 0 0 2.25-5.504c1.129-6.594.482-29.039-.175-36.541-.303-3.458-1.992-5.632-4.783-7.59a553.463 553.463 0 0 1 16.247-.208ZM263.833 428.23c4.785-.119 12.17 1.085 16.857 2.146.107 2.486.707 10.831-.225 12.61l-.626.161c-1.266-.698-2.635-2.262-3.586-3.385-4.015-4.946-11.543-7.702-16.596-2.602-2.67 3.031-.944 6.715 1.899 8.7 9.975 6.961 28.171 9.298 22.911 26.147-3.09 9.9-12.785 11.106-21.779 11.321-6.931-.207-10.14-1.115-16.651-3.054-.087-2.521-.395-10.962.934-12.793l.651-.087c1.722 1.005 4.104 3.919 5.785 5.598 3.082 3.97 15.114 5.464 18.282 1.014 4.833-6.791-4.976-11.139-9.034-12.853-6.443-2.721-16.411-7.568-16.874-15.27-.685-11.374 8.177-16.339 18.052-17.653Zm246.275 77.144c12.436.118 24.873.132 37.31.04.622 4.851 1.903 8.787 2.146 13.934-9.501-7.552-10.123-6.734-22.532-6.557-.236 4.838-.144 10.176-.149 15.055 8.569.188 8.457.429 15.147-4.927-.059 4.82-.015 10.199-.438 14.948-6.13-4.163-7.473-3.649-14.687-3.602l.064 10.6.357 6.171c5.946.436 13.418.869 18.497-2.241 2.472-1.514 4.531-2.945 7.124-4.368-1.407 4.671-3.03 9.268-4.428 13.995-12.201-.086-27.028-.722-38.995-.122l.827-.778c6.192-5.756 4.65-18.185 4.761-26.251.136-9.959 1.095-17.569-5.004-25.897Zm-94.409 78.31c3.768-.318 9.606-.234 13.56-.256a926.63 926.63 0 0 1 23.813.102c.863 3.102 1.924 9.829 2.493 13.198-2.64-1.907-6.347-5.571-9.501-6.041-3.921-.584-9.516-.233-13.54-.146a727.352 727.352 0 0 0-.01 13.857c3.094.048 6.188-.012 9.277-.178 1.494-.886 3.818-2.652 5.46-3.722.194 4.141-.021 9.762-.066 14.014l-2.166-1.264c-4.741-2.798-7.288-2.365-12.52-2.268-.047 3.877-.017 7.819-.025 11.702-.012 1.9.149 3.698.287 5.59 13.646.688 14.634.838 25.703-6.55-1.116 4.323-2.921 9.887-4.381 14.125-10.136-.279-26.798-.098-37.408-.069l-.511-.372c.502-2.124 3.714-2.818 3.902-7.738.465-12.213 1.038-25.021-.515-37.158-.272-2.13-3.514-5.373-3.852-6.826Zm122.488-155.462c6.543-.378 11.288.155 17.502 2.43-.084 2.803.156 10.608-.801 12.69l-.509.154c-1.472-1.004-3.16-4.397-4.722-6.017-3.373-4.072-10.484-4.373-14.176-.519-4.859 5.051 4.91 10.268 8.693 12.104 11.52 5.591 21.963 16.733 11.033 29.133-4.087 4.637-10.499 4.987-16.527 5.136-6.662-.257-10.837-1.108-17.125-3.089-.061-2.51.031-11.666 1.098-13.538l.633-.016c2.21 2.599 3.994 4.936 6.543 7.249 4.618 4.19 19.404 4.564 17.465-4.803-.933-3.854-4.953-5.808-8.131-7.459-6.435-3.341-15.02-7.138-16.747-14.987-.796-3.615.675-8.849 2.773-11.839 3.068-4.371 8.068-5.809 12.998-6.629Zm-244.033 1.08c14.584.875 30.457.627 45.063-.028.865 4.427 1.374 9.937 2.169 14.643-8.058-6.205-8.694-6.695-18.723-6.482-.019 10.964-.348 24.109.283 34.951.665 4.761 1.834 5.862 4.764 9.527-7.143.282-14.613.141-21.785.109 1.474-2.168 3.329-4.368 4.025-6.929 1.371-5.044.558-30.38.553-37.653-10.51-.235-9.587.721-18.121 5.861.5-4.587.977-9.479 1.772-13.999Zm107.899 76.942c7.171.206 16.157.121 23.284-.162-3.297 1.918-4.37 2.406-5.238 6.41-1.635 7.54-1.25 15.581-1.191 23.284.06 7.819-.372 16.666 5.222 22.74l.118.337c-.988.811-19.336.364-22.19.335 2.13-2.491 4.125-4.783 4.352-8.255.47-8.477.3-17.065.282-25.559-.018-8.499.849-12.215-4.639-19.13Zm-267.671.309c5.167-.488 17.117-.093 22.762-.049-3.924 3.182-5.147 7.005-5.274 11.969-.228 8.876-.315 17.939-.009 26.815.217 6.32.916 9.542 5.71 13.739-4.549.617-18.537.446-23.126.09 2.205-2.398 4.325-4.359 4.612-7.816.983-11.928.981-24.559.031-36.489-.311-3.898-1.625-6.009-4.706-8.259Zm191.466 59.01a6.644 6.644 0 1 1 3.216 12.893 6.644 6.644 0 0 1-3.216-12.893Zm-17.633-.003a6.613 6.613 0 0 1 3.173 12.837 6.612 6.612 0 1 1-3.173-12.837Z"/></svg>